<svg width="728" height="129" viewBox="0 0 728 129" fill="none" xmlns="http://www.w3.org/2000/svg">
<path d="M172.211 80.2969C172.211 83.4375 171.672 86.3438 170.594 89.0156C169.539 91.6875 168.109 94.125 166.305 96.3281C164.5 98.5078 162.414 100.441 160.047 102.129C157.68 103.816 155.195 105.234 152.594 106.383C149.992 107.531 147.344 108.398 144.648 108.984C141.977 109.57 139.434 109.863 137.02 109.863C133.457 109.863 130.199 109.266 127.246 108.07C124.316 106.898 121.797 105.258 119.688 103.148C117.578 101.039 115.938 98.5312 114.766 95.625C113.617 92.7188 113.043 89.543 113.043 86.0977C113.043 83.0742 113.57 80.2266 114.625 77.5547C115.703 74.8594 117.145 72.3984 118.949 70.1719C120.777 67.9219 122.887 65.9062 125.277 64.125C127.691 62.3438 130.234 60.8438 132.906 59.625C135.602 58.3828 138.344 57.4336 141.133 56.7773C143.945 56.1211 146.652 55.793 149.254 55.793C151.598 55.793 153.789 56.0977 155.828 56.707C157.867 57.293 159.73 58.1367 161.418 59.2383C163.129 60.3164 164.652 61.6172 165.988 63.1406C167.324 64.6406 168.449 66.3047 169.363 68.1328C170.301 69.9375 171.004 71.8711 171.473 73.9336C171.965 75.9961 172.211 78.1172 172.211 80.2969ZM140.535 60.4688C137.488 60.4688 134.828 61.0312 132.555 62.1562C130.305 63.2578 128.43 64.7578 126.93 66.6562C125.43 68.5547 124.305 70.7695 123.555 73.3008C122.828 75.8086 122.465 78.4688 122.465 81.2812C122.465 84.8203 123.086 88.0664 124.328 91.0195C125.57 93.9727 127.27 96.5156 129.426 98.6484C131.605 100.781 134.172 102.445 137.125 103.641C140.078 104.812 143.277 105.398 146.723 105.398C148.598 105.398 150.297 105.094 151.82 104.484C153.344 103.875 154.703 103.055 155.898 102.023C157.094 100.969 158.125 99.75 158.992 98.3672C159.883 96.9609 160.609 95.4727 161.172 93.9023C161.734 92.332 162.156 90.7266 162.438 89.0859C162.719 87.4219 162.859 85.8047 162.859 84.2344C162.859 80.9297 162.32 77.8359 161.242 74.9531C160.164 72.0703 158.641 69.5625 156.672 67.4297C154.703 65.2734 152.348 63.5742 149.605 62.332C146.863 61.0898 143.84 60.4688 140.535 60.4688ZM222.379 87.0469C222.379 89.1094 221.98 91.0664 221.184 92.918C220.387 94.7695 219.32 96.4922 217.984 98.0859C216.648 99.6797 215.102 101.133 213.344 102.445C211.609 103.758 209.781 104.895 207.859 105.855C205.961 106.816 204.039 107.578 202.094 108.141C200.148 108.727 198.32 109.09 196.609 109.23C195.859 109.277 194.969 109.266 193.938 109.195C192.906 109.125 191.84 108.938 190.738 108.633C189.66 108.352 188.582 107.918 187.504 107.332C186.449 106.723 185.5 105.914 184.656 104.906C183.812 103.898 183.133 102.656 182.617 101.18C182.102 99.6797 181.844 97.8984 181.844 95.8359C181.844 94.2891 181.855 92.4844 181.879 90.4219C181.926 88.3594 181.973 86.1562 182.02 83.8125C182.066 81.4453 182.113 79.0078 182.16 76.5C182.23 73.9688 182.301 71.4727 182.371 69.0117C182.441 66.5508 182.5 64.1836 182.547 61.9102C182.617 59.6133 182.664 57.5273 182.688 55.6523C182.734 53.7773 182.77 52.1602 182.793 50.8008C182.816 49.4414 182.816 48.4688 182.793 47.8828C182.723 47.0391 182.477 46.3242 182.055 45.7383C181.703 45.2461 181.164 44.8594 180.438 44.5781C179.734 44.2734 178.738 44.2969 177.449 44.6484C178.34 44.1797 179.242 43.6992 180.156 43.207C181.07 42.6914 181.996 42.2344 182.934 41.8359C183.871 41.4141 184.809 41.0742 185.746 40.8164C186.684 40.5352 187.633 40.3945 188.594 40.3945C189.086 40.3945 189.555 40.4414 190 40.5352C190.469 40.6289 190.867 40.8047 191.195 41.0625C191.547 41.2969 191.828 41.6133 192.039 42.0117C192.25 42.4102 192.355 42.9023 192.355 43.4883C192.355 43.9102 192.344 44.707 192.32 45.8789C192.297 47.0508 192.262 48.5039 192.215 50.2383C192.191 51.9727 192.145 53.918 192.074 56.0742C192.027 58.2305 191.969 60.4922 191.898 62.8594C191.852 65.2031 191.793 67.6055 191.723 70.0664C191.676 72.5039 191.617 74.8711 191.547 77.168C192.789 76.3242 194.043 75.5508 195.309 74.8477C196.574 74.1211 197.863 73.5117 199.176 73.0195C200.512 72.5039 201.859 72.1055 203.219 71.8242C204.602 71.5195 206.02 71.3672 207.473 71.3672C209.816 71.3672 211.914 71.8008 213.766 72.668C215.617 73.5352 217.176 74.6953 218.441 76.1484C219.73 77.6016 220.703 79.2773 221.359 81.1758C222.039 83.0508 222.379 85.0078 222.379 87.0469ZM191.266 93.832C191.266 95.0039 191.617 96.2461 192.32 97.5586C193.047 98.8477 194.008 100.043 195.203 101.145C196.398 102.246 197.77 103.16 199.316 103.887C200.863 104.613 202.48 104.977 204.168 104.977C205.809 104.977 207.191 104.578 208.316 103.781C209.465 102.984 210.391 101.977 211.094 100.758C211.797 99.5156 212.301 98.1562 212.605 96.6797C212.934 95.2031 213.098 93.7969 213.098 92.4609C213.098 90.3047 212.746 88.2656 212.043 86.3438C211.34 84.3984 210.344 82.6992 209.055 81.2461C207.789 79.7695 206.266 78.6094 204.484 77.7656C202.703 76.8984 200.746 76.4648 198.613 76.4648C197.746 76.4648 196.973 76.5234 196.293 76.6406C195.613 76.7578 195.086 76.9102 194.711 77.0977C194.359 77.2852 194.02 77.6367 193.691 78.1523C193.387 78.668 193.094 79.2891 192.812 80.0156C192.531 80.7422 192.273 81.5508 192.039 82.4414C191.805 83.332 191.594 84.2461 191.406 85.1836C191.359 87.2461 191.324 89.0508 191.301 90.5977C191.277 92.1445 191.266 93.2227 191.266 93.832ZM272.512 87.5391C272.512 89.4844 272.242 91.2539 271.703 92.8477C271.164 94.4414 270.52 95.8359 269.77 97.0312C269.02 98.2266 268.258 99.2227 267.484 100.02C266.711 100.816 266.09 101.391 265.621 101.742C264.262 102.727 262.867 103.688 261.438 104.625C260.008 105.562 258.531 106.406 257.008 107.156C255.508 107.883 253.961 108.469 252.367 108.914C250.773 109.359 249.133 109.582 247.445 109.582C244.938 109.582 242.559 109.266 240.309 108.633C238.082 108 236.125 107.051 234.438 105.785C232.773 104.52 231.449 102.926 230.465 101.004C229.504 99.082 229.023 96.832 229.023 94.2539C229.023 91.9805 229.41 89.8477 230.184 87.8555C230.98 85.8398 232.035 83.9883 233.348 82.3008C234.684 80.6133 236.242 79.1016 238.023 77.7656C239.805 76.4062 241.691 75.2578 243.684 74.3203C245.676 73.3828 247.727 72.668 249.836 72.1758C251.945 71.6836 253.984 71.4375 255.953 71.4375C258.391 71.4375 260.617 71.8477 262.633 72.668C264.672 73.4648 266.418 74.5898 267.871 76.043C269.348 77.4727 270.484 79.1719 271.281 81.1406C272.102 83.1094 272.512 85.2422 272.512 87.5391ZM248.254 75.5156C247.059 75.5156 245.969 75.7383 244.984 76.1836C244 76.6055 243.121 77.1914 242.348 77.9414C241.598 78.668 240.941 79.5234 240.379 80.5078C239.84 81.4688 239.383 82.4883 239.008 83.5664C238.656 84.6211 238.387 85.6992 238.199 86.8008C238.035 87.8789 237.953 88.8984 237.953 89.8594C237.953 92.0391 238.352 94.0781 239.148 95.9766C239.945 97.8516 241.035 99.4922 242.418 100.898C243.824 102.305 245.453 103.406 247.305 104.203C249.18 105 251.172 105.398 253.281 105.398C254.594 105.398 255.859 105.152 257.078 104.66C258.32 104.145 259.41 103.348 260.348 102.27C261.309 101.168 262.07 99.7617 262.633 98.0508C263.219 96.3164 263.512 94.2305 263.512 91.793C263.512 89.6602 263.113 87.6094 262.316 85.6406C261.52 83.6719 260.43 81.9375 259.047 80.4375C257.664 78.9375 256.047 77.7422 254.195 76.8516C252.344 75.9609 250.363 75.5156 248.254 75.5156ZM331.363 103.113C328.199 105.27 325.504 106.816 323.277 107.754C321.051 108.691 319.164 109.16 317.617 109.16C316.984 109.16 316.328 109.055 315.648 108.844C314.992 108.656 314.359 108.328 313.75 107.859C313.141 107.367 312.578 106.723 312.062 105.926C311.57 105.105 311.184 104.074 310.902 102.832C309.754 103.676 308.477 104.508 307.07 105.328C305.688 106.148 304.258 106.887 302.781 107.543C301.305 108.199 299.816 108.727 298.316 109.125C296.84 109.523 295.422 109.723 294.062 109.723C291.766 109.723 289.703 109.254 287.875 108.316C286.047 107.402 284.488 106.184 283.199 104.66C281.934 103.137 280.949 101.402 280.246 99.457C279.566 97.5117 279.227 95.5078 279.227 93.4453C279.227 91.1484 279.578 89.0977 280.281 87.293C281.008 85.4648 281.98 83.8477 283.199 82.4414C284.441 81.0117 285.871 79.7578 287.488 78.6797C289.105 77.5781 290.828 76.6172 292.656 75.7969C294.484 74.9766 296.359 74.2617 298.281 73.6523C300.203 73.0195 302.066 72.4453 303.871 71.9297C304.035 71.9062 304.234 71.8828 304.469 71.8594C304.656 71.8359 304.879 71.8242 305.137 71.8242C305.418 71.8008 305.734 71.7891 306.086 71.7891C306.742 71.7891 307.48 71.8359 308.301 71.9297C309.145 72 310.035 72.1406 310.973 72.3516L311.711 50.168C311.664 48.8789 311.43 47.7773 311.008 46.8633C310.82 46.4883 310.586 46.1367 310.305 45.8086C310.023 45.457 309.672 45.1875 309.25 45C308.852 44.8125 308.359 44.707 307.773 44.6836C307.211 44.6602 306.555 44.7656 305.805 45C306.719 44.5781 307.691 44.1094 308.723 43.5938C309.754 43.0547 310.773 42.5625 311.781 42.1172C312.812 41.6484 313.809 41.2617 314.77 40.957C315.754 40.6289 316.656 40.4648 317.477 40.4648C318.367 40.4648 319.105 40.6992 319.691 41.168C320.301 41.6367 320.641 42.3633 320.711 43.3477C320.781 44.0039 320.816 44.9062 320.816 46.0547C320.84 47.2031 320.852 48.5742 320.852 50.168C320.852 52.0664 320.828 54.1875 320.781 56.5312C320.758 58.8516 320.723 61.2773 320.676 63.8086C320.629 66.3398 320.57 68.918 320.5 71.543C320.43 74.168 320.371 76.7344 320.324 79.2422C320.277 81.75 320.23 84.1406 320.184 86.4141C320.16 88.6641 320.148 90.6797 320.148 92.4609C320.148 93.8672 320.23 95.25 320.395 96.6094C320.582 97.9688 320.934 99.1875 321.449 100.266C321.988 101.344 322.727 102.223 323.664 102.902C324.625 103.559 325.891 103.887 327.461 103.887C328.047 103.887 328.656 103.828 329.289 103.711C329.945 103.594 330.637 103.395 331.363 103.113ZM310.762 80.0508C309.941 79.3477 309.062 78.7617 308.125 78.293C307.188 77.8242 306.215 77.4492 305.207 77.168C304.223 76.8633 303.227 76.6523 302.219 76.5352C301.234 76.3945 300.273 76.3242 299.336 76.3242C297.297 76.3242 295.551 76.6289 294.098 77.2383C292.668 77.8477 291.496 78.7148 290.582 79.8398C289.668 80.9648 289 82.3125 288.578 83.8828C288.156 85.4531 287.945 87.1992 287.945 89.1211C287.945 91.1836 288.262 93.1406 288.895 94.9922C289.551 96.8203 290.465 98.4375 291.637 99.8438C292.809 101.227 294.227 102.328 295.891 103.148C297.578 103.945 299.441 104.344 301.48 104.344C302.934 104.344 304.176 104.168 305.207 103.816C306.238 103.441 307.094 102.938 307.773 102.305C308.477 101.648 309.039 100.863 309.461 99.9492C309.883 99.0352 310.223 98.0273 310.48 96.9258C310.48 96.0117 310.48 94.9453 310.48 93.7266C310.504 92.4844 310.527 91.1484 310.551 89.7188C310.598 88.2656 310.633 86.7305 310.656 85.1133C310.68 83.4727 310.715 81.7852 310.762 80.0508ZM368.242 86.4844C368.031 86.4844 367.738 86.6367 367.363 86.9414C367.012 87.2227 366.637 87.5625 366.238 87.9609C365.863 88.3359 365.5 88.7109 365.148 89.0859C364.797 89.4375 364.551 89.6719 364.41 89.7891C364.246 89.9062 363.988 90.1406 363.637 90.4922C363.309 90.8438 362.945 91.207 362.547 91.582C362.172 91.9336 361.797 92.25 361.422 92.5312C361.047 92.8125 360.754 92.9531 360.543 92.9531H334.316C334.926 92.4375 335.488 91.957 336.004 91.5117C336.449 91.1367 336.883 90.7734 337.305 90.4219C337.727 90.0703 338.008 89.8359 338.148 89.7188C338.312 89.5781 338.559 89.332 338.887 88.9805C339.238 88.6055 339.602 88.2422 339.977 87.8906C340.375 87.5156 340.762 87.1875 341.137 86.9062C341.512 86.625 341.816 86.4844 342.051 86.4844H368.242ZM427.551 98.9297C426.285 100.523 424.949 102.035 423.543 103.465C422.137 104.871 420.555 106.09 418.797 107.121C417.062 108.152 415.082 108.949 412.855 109.512C410.652 110.074 408.109 110.309 405.227 110.215C402.953 110.145 400.586 110.027 398.125 109.863C395.688 109.723 393.285 109.57 390.918 109.406C388.551 109.242 386.301 109.102 384.168 108.984C382.035 108.867 380.148 108.809 378.508 108.809C377.617 108.809 376.809 108.82 376.082 108.844C375.379 108.891 374.793 108.973 374.324 109.09C375.074 108.316 376 107.203 377.102 105.75C378.203 104.273 379.41 102.598 380.723 100.723C382.035 98.8242 383.418 96.7852 384.871 94.6055C386.324 92.4258 387.777 90.2344 389.23 88.0312C390.707 85.8281 392.137 83.6836 393.52 81.5977C394.902 79.5117 396.191 77.6133 397.387 75.9023C399.66 72.5977 401.699 69.7734 403.504 67.4297C405.309 65.0625 406.914 63.1055 408.32 61.5586C407.336 61.8633 406.34 62.0859 405.332 62.2266C404.324 62.3438 403.41 62.4258 402.59 62.4727C401.629 62.543 400.703 62.5547 399.812 62.5078C397.258 62.3438 394.75 62.0977 392.289 61.7695C389.828 61.4414 387.473 61.2773 385.223 61.2773C383.324 61.2773 381.543 61.4766 379.879 61.875C378.238 62.2734 376.75 63.0586 375.414 64.2305C376.961 62.3789 378.402 60.7969 379.738 59.4844C381.074 58.1484 382.457 57.0586 383.887 56.2148C385.34 55.3477 386.922 54.7148 388.633 54.3164C390.344 53.918 392.348 53.7188 394.645 53.7188C396.262 53.7188 397.832 53.8125 399.355 54C400.902 54.1641 402.426 54.3633 403.926 54.5977C405.449 54.8086 406.949 55.0078 408.426 55.1953C409.902 55.3594 411.402 55.4414 412.926 55.4414C414.168 55.4414 415.387 55.3828 416.582 55.2656C417.801 55.125 418.961 54.8906 420.062 54.5625C418.82 55.2656 417.648 56.168 416.547 57.2695C415.469 58.3477 414.52 59.4141 413.699 60.4688C412.738 61.6875 411.836 62.9414 410.992 64.2305C410.383 65.2383 409.504 66.6445 408.355 68.4492C407.207 70.2305 405.883 72.2461 404.383 74.4961C402.906 76.7227 401.301 79.1016 399.566 81.6328C397.832 84.1406 396.062 86.6133 394.258 89.0508C392.477 91.4648 390.707 93.75 388.949 95.9062C387.215 98.0625 385.586 99.9141 384.062 101.461H384.414C386.875 101.461 389.301 101.543 391.691 101.707C394.105 101.871 396.496 102.059 398.863 102.27C401.23 102.457 403.574 102.633 405.895 102.797C408.238 102.961 410.582 103.043 412.926 103.043C414.754 103.043 416.406 102.984 417.883 102.867C419.383 102.727 420.73 102.504 421.926 102.199C423.121 101.871 424.176 101.449 425.09 100.934C426.027 100.395 426.848 99.7266 427.551 98.9297ZM477.402 102.586C476.418 103.57 475.352 104.473 474.203 105.293C473.078 106.09 471.941 106.781 470.793 107.367C469.645 107.953 468.531 108.422 467.453 108.773C466.375 109.125 465.391 109.324 464.5 109.371C464.008 109.418 463.375 109.406 462.602 109.336C461.828 109.289 461.078 109.09 460.352 108.738C459.648 108.387 459.039 107.836 458.523 107.086C458.008 106.336 457.75 105.27 457.75 103.887V99.7031C456.461 100.969 455.102 102.188 453.672 103.359C452.242 104.508 450.766 105.539 449.242 106.453C447.742 107.344 446.219 108.047 444.672 108.562C443.125 109.102 441.602 109.371 440.102 109.371C438.18 109.371 436.492 108.938 435.039 108.07C433.586 107.227 432.367 106.125 431.383 104.766C430.398 103.406 429.66 101.883 429.168 100.195C428.676 98.5078 428.43 96.832 428.43 95.168C428.43 93.9258 428.523 92.707 428.711 91.5117C428.898 90.293 429.133 89.1445 429.414 88.0664C429.719 86.9883 430.059 86.0156 430.434 85.1484C430.832 84.2812 431.242 83.5664 431.664 83.0039C432.438 81.9492 433.422 80.9297 434.617 79.9453C435.812 78.9609 437.113 78.0352 438.52 77.168C439.949 76.3008 441.461 75.5156 443.055 74.8125C444.648 74.1094 446.23 73.5 447.801 72.9844C449.395 72.4688 450.941 72.0703 452.441 71.7891C453.941 71.5078 455.324 71.3672 456.59 71.3672C457.902 71.3672 459.449 71.4375 461.23 71.5781C463.012 71.6953 465.039 71.9531 467.312 72.3516C467.219 75.0469 467.137 77.4258 467.066 79.4883C466.996 81.5508 466.938 83.4023 466.891 85.043C466.844 86.6602 466.809 88.1367 466.785 89.4727C466.762 90.8086 466.75 92.1094 466.75 93.375C466.75 94.6641 466.727 95.9297 466.68 97.1719C466.633 98.4141 466.727 99.5273 466.961 100.512C467.195 101.496 467.652 102.293 468.332 102.902C469.035 103.512 470.113 103.816 471.566 103.816C472.434 103.816 473.359 103.711 474.344 103.5C475.328 103.266 476.348 102.961 477.402 102.586ZM457.82 77.4141C456.414 77.0391 454.914 76.7812 453.32 76.6406C451.727 76.4766 450.203 76.3945 448.75 76.3945C447.953 76.3945 447.191 76.418 446.465 76.4648C445.762 76.5117 445.117 76.5703 444.531 76.6406C443.945 76.7109 443.43 76.8047 442.984 76.9219C442.539 77.0156 442.199 77.1328 441.965 77.2734C441.543 77.4844 441.051 78 440.488 78.8203C439.926 79.6172 439.387 80.6133 438.871 81.8086C438.355 83.0039 437.91 84.3516 437.535 85.8516C437.184 87.3516 437.008 88.8984 437.008 90.4922C437.008 92.0156 437.23 93.5508 437.676 95.0977C438.121 96.6211 438.766 97.9922 439.609 99.2109C440.477 100.43 441.531 101.426 442.773 102.199C444.039 102.949 445.48 103.324 447.098 103.324C448.621 103.324 449.969 103.078 451.141 102.586C452.312 102.094 453.332 101.426 454.199 100.582C455.066 99.7148 455.781 98.707 456.344 97.5586C456.93 96.4102 457.398 95.168 457.75 93.832C457.75 92.8477 457.75 91.8047 457.75 90.7031C457.75 89.5781 457.75 88.3477 457.75 87.0117C457.75 85.6758 457.75 84.2227 457.75 82.6523C457.773 81.0586 457.797 79.3125 457.82 77.4141ZM493.398 79.5586C494.5 78.5039 495.695 77.4492 496.984 76.3945C498.297 75.3398 499.621 74.3906 500.957 73.5469C502.316 72.6797 503.676 71.9766 505.035 71.4375C506.395 70.8984 507.672 70.6289 508.867 70.6289C509.688 70.6289 510.484 70.7227 511.258 70.9102C512.055 71.0742 512.828 71.2734 513.578 71.5078C514.352 71.7188 515.113 71.918 515.863 72.1055C516.613 72.2695 517.375 72.3516 518.148 72.3516C518.617 72.3516 519.109 72.3164 519.625 72.2461C520.141 72.1758 520.727 72.0469 521.383 71.8594C519.906 72.9844 518.617 73.957 517.516 74.7773C516.414 75.5977 515.383 76.2773 514.422 76.8164C513.461 77.332 512.5 77.7188 511.539 77.9766C510.602 78.2109 509.547 78.3047 508.375 78.2578C507.227 78.2344 506.137 78.1172 505.105 77.9062C504.098 77.6953 503.172 77.4844 502.328 77.2734C501.508 77.0391 500.781 76.875 500.148 76.7812C499.539 76.6641 499.059 76.6992 498.707 76.8867C497.863 77.3086 497.125 78.082 496.492 79.207C495.859 80.332 495.32 81.668 494.875 83.2148C494.453 84.7617 494.102 86.4375 493.82 88.2422C493.562 90.0469 493.363 91.8516 493.223 93.6562C493.105 95.4609 493.047 97.1836 493.047 98.8242C493.047 100.441 493.094 101.848 493.188 103.043C491.43 104.168 489.977 105.141 488.828 105.961C487.68 106.781 486.766 107.461 486.086 108C485.289 108.633 484.68 109.184 484.258 109.652C484.281 108.246 484.316 106.547 484.363 104.555C484.41 102.539 484.445 100.43 484.469 98.2266C484.516 96.0234 484.551 93.8438 484.574 91.6875C484.598 89.5078 484.609 87.5508 484.609 85.8164C484.609 84.7148 484.574 83.6016 484.504 82.4766C484.457 81.3281 484.27 80.2852 483.941 79.3477C483.613 78.4102 483.098 77.6484 482.395 77.0625C481.715 76.4766 480.742 76.1836 479.477 76.1836C478.984 76.1836 478.469 76.2422 477.93 76.3594C477.414 76.4531 476.898 76.6289 476.383 76.8867C477.367 76.2305 478.352 75.5625 479.336 74.8828C480.32 74.2031 481.305 73.5938 482.289 73.0547C483.297 72.4922 484.293 72.0469 485.277 71.7188C486.285 71.3672 487.305 71.1914 488.336 71.1914C489.578 71.1914 490.539 71.4609 491.219 72C491.922 72.5391 492.426 73.2188 492.73 74.0391C493.059 74.8594 493.246 75.7617 493.293 76.7461C493.363 77.7305 493.398 78.668 493.398 79.5586ZM562.973 87.0469C562.973 89.1094 562.574 91.0664 561.777 92.918C560.98 94.7695 559.914 96.4922 558.578 98.0859C557.242 99.6797 555.695 101.133 553.938 102.445C552.203 103.758 550.375 104.895 548.453 105.855C546.555 106.816 544.633 107.578 542.688 108.141C540.742 108.727 538.914 109.09 537.203 109.23C536.453 109.277 535.562 109.266 534.531 109.195C533.5 109.125 532.434 108.938 531.332 108.633C530.254 108.352 529.176 107.918 528.098 107.332C527.043 106.723 526.094 105.914 525.25 104.906C524.406 103.898 523.727 102.656 523.211 101.18C522.695 99.6797 522.438 97.8984 522.438 95.8359C522.438 94.2891 522.449 92.4844 522.473 90.4219C522.52 88.3594 522.566 86.1562 522.613 83.8125C522.66 81.4453 522.707 79.0078 522.754 76.5C522.824 73.9688 522.895 71.4727 522.965 69.0117C523.035 66.5508 523.094 64.1836 523.141 61.9102C523.211 59.6133 523.258 57.5273 523.281 55.6523C523.328 53.7773 523.363 52.1602 523.387 50.8008C523.41 49.4414 523.41 48.4688 523.387 47.8828C523.316 47.0391 523.07 46.3242 522.648 45.7383C522.297 45.2461 521.758 44.8594 521.031 44.5781C520.328 44.2734 519.332 44.2969 518.043 44.6484C518.934 44.1797 519.836 43.6992 520.75 43.207C521.664 42.6914 522.59 42.2344 523.527 41.8359C524.465 41.4141 525.402 41.0742 526.34 40.8164C527.277 40.5352 528.227 40.3945 529.188 40.3945C529.68 40.3945 530.148 40.4414 530.594 40.5352C531.062 40.6289 531.461 40.8047 531.789 41.0625C532.141 41.2969 532.422 41.6133 532.633 42.0117C532.844 42.4102 532.949 42.9023 532.949 43.4883C532.949 43.9102 532.938 44.707 532.914 45.8789C532.891 47.0508 532.855 48.5039 532.809 50.2383C532.785 51.9727 532.738 53.918 532.668 56.0742C532.621 58.2305 532.562 60.4922 532.492 62.8594C532.445 65.2031 532.387 67.6055 532.316 70.0664C532.27 72.5039 532.211 74.8711 532.141 77.168C533.383 76.3242 534.637 75.5508 535.902 74.8477C537.168 74.1211 538.457 73.5117 539.77 73.0195C541.105 72.5039 542.453 72.1055 543.812 71.8242C545.195 71.5195 546.613 71.3672 548.066 71.3672C550.41 71.3672 552.508 71.8008 554.359 72.668C556.211 73.5352 557.77 74.6953 559.035 76.1484C560.324 77.6016 561.297 79.2773 561.953 81.1758C562.633 83.0508 562.973 85.0078 562.973 87.0469ZM531.859 93.832C531.859 95.0039 532.211 96.2461 532.914 97.5586C533.641 98.8477 534.602 100.043 535.797 101.145C536.992 102.246 538.363 103.16 539.91 103.887C541.457 104.613 543.074 104.977 544.762 104.977C546.402 104.977 547.785 104.578 548.91 103.781C550.059 102.984 550.984 101.977 551.688 100.758C552.391 99.5156 552.895 98.1562 553.199 96.6797C553.527 95.2031 553.691 93.7969 553.691 92.4609C553.691 90.3047 553.34 88.2656 552.637 86.3438C551.934 84.3984 550.938 82.6992 549.648 81.2461C548.383 79.7695 546.859 78.6094 545.078 77.7656C543.297 76.8984 541.34 76.4648 539.207 76.4648C538.34 76.4648 537.566 76.5234 536.887 76.6406C536.207 76.7578 535.68 76.9102 535.305 77.0977C534.953 77.2852 534.613 77.6367 534.285 78.1523C533.98 78.668 533.688 79.2891 533.406 80.0156C533.125 80.7422 532.867 81.5508 532.633 82.4414C532.398 83.332 532.188 84.2461 532 85.1836C531.953 87.2461 531.918 89.0508 531.895 90.5977C531.871 92.1445 531.859 93.2227 531.859 93.832ZM621.824 103.113C618.66 105.27 615.965 106.816 613.738 107.754C611.512 108.691 609.625 109.16 608.078 109.16C607.445 109.16 606.789 109.055 606.109 108.844C605.453 108.656 604.82 108.328 604.211 107.859C603.602 107.367 603.039 106.723 602.523 105.926C602.031 105.105 601.645 104.074 601.363 102.832C600.215 103.676 598.938 104.508 597.531 105.328C596.148 106.148 594.719 106.887 593.242 107.543C591.766 108.199 590.277 108.727 588.777 109.125C587.301 109.523 585.883 109.723 584.523 109.723C582.227 109.723 580.164 109.254 578.336 108.316C576.508 107.402 574.949 106.184 573.66 104.66C572.395 103.137 571.41 101.402 570.707 99.457C570.027 97.5117 569.688 95.5078 569.688 93.4453C569.688 91.1484 570.039 89.0977 570.742 87.293C571.469 85.4648 572.441 83.8477 573.66 82.4414C574.902 81.0117 576.332 79.7578 577.949 78.6797C579.566 77.5781 581.289 76.6172 583.117 75.7969C584.945 74.9766 586.82 74.2617 588.742 73.6523C590.664 73.0195 592.527 72.4453 594.332 71.9297C594.496 71.9062 594.695 71.8828 594.93 71.8594C595.117 71.8359 595.34 71.8242 595.598 71.8242C595.879 71.8008 596.195 71.7891 596.547 71.7891C597.203 71.7891 597.941 71.8359 598.762 71.9297C599.605 72 600.496 72.1406 601.434 72.3516L602.172 50.168C602.125 48.8789 601.891 47.7773 601.469 46.8633C601.281 46.4883 601.047 46.1367 600.766 45.8086C600.484 45.457 600.133 45.1875 599.711 45C599.312 44.8125 598.82 44.707 598.234 44.6836C597.672 44.6602 597.016 44.7656 596.266 45C597.18 44.5781 598.152 44.1094 599.184 43.5938C600.215 43.0547 601.234 42.5625 602.242 42.1172C603.273 41.6484 604.27 41.2617 605.23 40.957C606.215 40.6289 607.117 40.4648 607.938 40.4648C608.828 40.4648 609.566 40.6992 610.152 41.168C610.762 41.6367 611.102 42.3633 611.172 43.3477C611.242 44.0039 611.277 44.9062 611.277 46.0547C611.301 47.2031 611.312 48.5742 611.312 50.168C611.312 52.0664 611.289 54.1875 611.242 56.5312C611.219 58.8516 611.184 61.2773 611.137 63.8086C611.09 66.3398 611.031 68.918 610.961 71.543C610.891 74.168 610.832 76.7344 610.785 79.2422C610.738 81.75 610.691 84.1406 610.645 86.4141C610.621 88.6641 610.609 90.6797 610.609 92.4609C610.609 93.8672 610.691 95.25 610.855 96.6094C611.043 97.9688 611.395 99.1875 611.91 100.266C612.449 101.344 613.188 102.223 614.125 102.902C615.086 103.559 616.352 103.887 617.922 103.887C618.508 103.887 619.117 103.828 619.75 103.711C620.406 103.594 621.098 103.395 621.824 103.113ZM601.223 80.0508C600.402 79.3477 599.523 78.7617 598.586 78.293C597.648 77.8242 596.676 77.4492 595.668 77.168C594.684 76.8633 593.688 76.6523 592.68 76.5352C591.695 76.3945 590.734 76.3242 589.797 76.3242C587.758 76.3242 586.012 76.6289 584.559 77.2383C583.129 77.8477 581.957 78.7148 581.043 79.8398C580.129 80.9648 579.461 82.3125 579.039 83.8828C578.617 85.4531 578.406 87.1992 578.406 89.1211C578.406 91.1836 578.723 93.1406 579.355 94.9922C580.012 96.8203 580.926 98.4375 582.098 99.8438C583.27 101.227 584.688 102.328 586.352 103.148C588.039 103.945 589.902 104.344 591.941 104.344C593.395 104.344 594.637 104.168 595.668 103.816C596.699 103.441 597.555 102.938 598.234 102.305C598.938 101.648 599.5 100.863 599.922 99.9492C600.344 99.0352 600.684 98.0273 600.941 96.9258C600.941 96.0117 600.941 94.9453 600.941 93.7266C600.965 92.4844 600.988 91.1484 601.012 89.7188C601.059 88.2656 601.094 86.7305 601.117 85.1133C601.141 83.4727 601.176 81.7852 601.223 80.0508ZM667.668 87.5391C667.668 89.4844 667.398 91.2539 666.859 92.8477C666.32 94.4414 665.676 95.8359 664.926 97.0312C664.176 98.2266 663.414 99.2227 662.641 100.02C661.867 100.816 661.246 101.391 660.777 101.742C659.418 102.727 658.023 103.688 656.594 104.625C655.164 105.562 653.688 106.406 652.164 107.156C650.664 107.883 649.117 108.469 647.523 108.914C645.93 109.359 644.289 109.582 642.602 109.582C640.094 109.582 637.715 109.266 635.465 108.633C633.238 108 631.281 107.051 629.594 105.785C627.93 104.52 626.605 102.926 625.621 101.004C624.66 99.082 624.18 96.832 624.18 94.2539C624.18 91.9805 624.566 89.8477 625.34 87.8555C626.137 85.8398 627.191 83.9883 628.504 82.3008C629.84 80.6133 631.398 79.1016 633.18 77.7656C634.961 76.4062 636.848 75.2578 638.84 74.3203C640.832 73.3828 642.883 72.668 644.992 72.1758C647.102 71.6836 649.141 71.4375 651.109 71.4375C653.547 71.4375 655.773 71.8477 657.789 72.668C659.828 73.4648 661.574 74.5898 663.027 76.043C664.504 77.4727 665.641 79.1719 666.438 81.1406C667.258 83.1094 667.668 85.2422 667.668 87.5391ZM643.41 75.5156C642.215 75.5156 641.125 75.7383 640.141 76.1836C639.156 76.6055 638.277 77.1914 637.504 77.9414C636.754 78.668 636.098 79.5234 635.535 80.5078C634.996 81.4688 634.539 82.4883 634.164 83.5664C633.812 84.6211 633.543 85.6992 633.355 86.8008C633.191 87.8789 633.109 88.8984 633.109 89.8594C633.109 92.0391 633.508 94.0781 634.305 95.9766C635.102 97.8516 636.191 99.4922 637.574 100.898C638.98 102.305 640.609 103.406 642.461 104.203C644.336 105 646.328 105.398 648.438 105.398C649.75 105.398 651.016 105.152 652.234 104.66C653.477 104.145 654.566 103.348 655.504 102.27C656.465 101.168 657.227 99.7617 657.789 98.0508C658.375 96.3164 658.668 94.2305 658.668 91.793C658.668 89.6602 658.27 87.6094 657.473 85.6406C656.676 83.6719 655.586 81.9375 654.203 80.4375C652.82 78.9375 651.203 77.7422 649.352 76.8516C647.5 75.9609 645.52 75.5156 643.41 75.5156ZM688.516 79.5586C689.617 78.5039 690.812 77.4492 692.102 76.3945C693.414 75.3398 694.738 74.3906 696.074 73.5469C697.434 72.6797 698.793 71.9766 700.152 71.4375C701.512 70.8984 702.789 70.6289 703.984 70.6289C704.805 70.6289 705.602 70.7227 706.375 70.9102C707.172 71.0742 707.945 71.2734 708.695 71.5078C709.469 71.7188 710.23 71.918 710.98 72.1055C711.73 72.2695 712.492 72.3516 713.266 72.3516C713.734 72.3516 714.227 72.3164 714.742 72.2461C715.258 72.1758 715.844 72.0469 716.5 71.8594C715.023 72.9844 713.734 73.957 712.633 74.7773C711.531 75.5977 710.5 76.2773 709.539 76.8164C708.578 77.332 707.617 77.7188 706.656 77.9766C705.719 78.2109 704.664 78.3047 703.492 78.2578C702.344 78.2344 701.254 78.1172 700.223 77.9062C699.215 77.6953 698.289 77.4844 697.445 77.2734C696.625 77.0391 695.898 76.875 695.266 76.7812C694.656 76.6641 694.176 76.6992 693.824 76.8867C692.98 77.3086 692.242 78.082 691.609 79.207C690.977 80.332 690.438 81.668 689.992 83.2148C689.57 84.7617 689.219 86.4375 688.938 88.2422C688.68 90.0469 688.48 91.8516 688.34 93.6562C688.223 95.4609 688.164 97.1836 688.164 98.8242C688.164 100.441 688.211 101.848 688.305 103.043C686.547 104.168 685.094 105.141 683.945 105.961C682.797 106.781 681.883 107.461 681.203 108C680.406 108.633 679.797 109.184 679.375 109.652C679.398 108.246 679.434 106.547 679.48 104.555C679.527 102.539 679.562 100.43 679.586 98.2266C679.633 96.0234 679.668 93.8438 679.691 91.6875C679.715 89.5078 679.727 87.5508 679.727 85.8164C679.727 84.7148 679.691 83.6016 679.621 82.4766C679.574 81.3281 679.387 80.2852 679.059 79.3477C678.73 78.4102 678.215 77.6484 677.512 77.0625C676.832 76.4766 675.859 76.1836 674.594 76.1836C674.102 76.1836 673.586 76.2422 673.047 76.3594C672.531 76.4531 672.016 76.6289 671.5 76.8867C672.484 76.2305 673.469 75.5625 674.453 74.8828C675.438 74.2031 676.422 73.5938 677.406 73.0547C678.414 72.4922 679.41 72.0469 680.395 71.7188C681.402 71.3672 682.422 71.1914 683.453 71.1914C684.695 71.1914 685.656 71.4609 686.336 72C687.039 72.5391 687.543 73.2188 687.848 74.0391C688.176 74.8594 688.363 75.7617 688.41 76.7461C688.48 77.7305 688.516 78.668 688.516 79.5586Z" fill="white"/>
<ellipse cx="50.4333" cy="77.1149" rx="50.4333" ry="51.1149" fill="#16A3C2"/>
<path d="M89.3977 99.0952C87.7366 101.187 85.9832 103.171 84.1375 105.048C82.2918 106.893 80.2153 108.493 77.9082 109.846C75.6318 111.2 73.0325 112.246 70.1101 112.984C67.2185 113.722 63.8809 114.03 60.0972 113.907C57.1133 113.815 54.0064 113.661 50.7764 113.446C47.5772 113.261 44.4241 113.061 41.3171 112.846C38.2102 112.63 35.2571 112.446 32.4578 112.292C29.6584 112.138 27.1821 112.061 25.0288 112.061C23.8599 112.061 22.7986 112.077 21.845 112.107C20.9221 112.169 20.1531 112.277 19.5378 112.43C20.5222 111.415 21.7373 109.954 23.1831 108.047C24.6289 106.109 26.2131 103.909 27.9358 101.448C29.6584 98.9568 31.4734 96.2805 33.3806 93.4197C35.2878 90.5588 37.1951 87.6826 39.1023 84.791C41.0403 81.8994 42.9168 79.0847 44.7317 76.3469C46.5466 73.6091 48.2385 71.1174 49.8074 68.8718C52.7913 64.5344 55.4675 60.8276 57.8362 57.7515C60.2048 54.6445 62.312 52.0759 64.1577 50.0456C62.8657 50.4456 61.5584 50.7378 60.2356 50.9224C58.9128 51.0762 57.7131 51.1838 56.6365 51.2454C55.3752 51.3376 54.1602 51.353 52.9912 51.2915C49.6382 51.0762 46.3467 50.7532 43.1167 50.3225C39.8867 49.8918 36.7952 49.6765 33.842 49.6765C31.3503 49.6765 29.0125 49.938 26.8284 50.4609C24.675 50.9839 22.7217 52.0144 20.9683 53.5525C22.9985 51.1223 24.8904 49.0459 26.6438 47.3232C28.3972 45.5698 30.2122 44.1394 32.0886 43.032C33.9959 41.8938 36.0723 41.0632 38.3179 40.5403C40.5635 40.0173 43.1936 39.7559 46.2083 39.7559C48.3308 39.7559 50.3918 39.8789 52.3914 40.125C54.4216 40.3403 56.4211 40.6018 58.3899 40.9094C60.3894 41.1863 62.3582 41.4477 64.2961 41.6938C66.2341 41.9092 68.2029 42.0168 70.2024 42.0168C71.8328 42.0168 73.4324 41.9399 75.0012 41.7861C76.6008 41.6016 78.1235 41.2939 79.5693 40.8633C77.939 41.7861 76.4009 42.9705 74.9551 44.4163C73.54 45.8313 72.2942 47.231 71.2175 48.6152C69.9563 50.2148 68.772 51.8606 67.6646 53.5525C66.8648 54.8752 65.7112 56.7209 64.2039 59.0896C62.6965 61.4275 60.9585 64.073 58.9897 67.0261C57.0518 69.9485 54.9446 73.0708 52.6682 76.3931C50.3918 79.6846 48.0693 82.9299 45.7007 86.1291C43.3628 89.2976 41.0403 92.2969 38.7332 95.127C36.4568 97.957 34.3188 100.387 32.3193 102.417H32.7808C36.0107 102.417 39.1946 102.525 42.3323 102.74C45.5007 102.956 48.6384 103.202 51.7454 103.479C54.8523 103.725 57.9285 103.956 60.9739 104.171C64.0501 104.386 67.1262 104.494 70.2024 104.494C72.6018 104.494 74.7705 104.417 76.7085 104.263C78.6773 104.079 80.4461 103.786 82.0149 103.386C83.5837 102.956 84.968 102.402 86.1677 101.725C87.3982 101.018 88.4749 100.141 89.3977 99.0952Z" fill="white"/>
</svg>
